<?xml version="1.0" encoding="UTF-8"?>
<svg xmlns="http://www.w3.org/2000/svg" xmlns:xlink="http://www.w3.org/1999/xlink" width="74px" height="42px" viewBox="0 0 74 42" version="1.1">
<g id="surface1">
<path style=" stroke:none;fill-rule:evenodd;fill:rgb(0%,53.72549%,81.176471%);fill-opacity:1;" d="M 13.890625 14.90625 C 13.878906 16.167969 13.664062 17.464844 13.03125 18.566406 C 12.59375 19.320312 11.894531 19.957031 11.039062 20.144531 C 10.230469 20.3125 9.339844 20.1875 8.644531 19.699219 C 7.917969 19.203125 7.4375 18.402344 7.152344 17.5625 C 6.738281 16.355469 6.6875 15.054688 6.773438 13.789062 C 6.890625 12.632812 7.179688 11.449219 7.878906 10.511719 C 8.375 9.835938 9.117188 9.398438 9.9375 9.296875 C 10.636719 9.203125 11.371094 9.339844 11.964844 9.738281 C 12.609375 10.167969 13.058594 10.851562 13.347656 11.570312 C 13.769531 12.625 13.910156 13.773438 13.890625 14.90625 Z M 19.4375 12.492188 C 19.707031 13.949219 19.679688 15.457031 19.410156 16.921875 C 19.132812 18.398438 18.535156 19.824219 17.59375 20.988281 C 16.554688 22.296875 15.117188 23.238281 13.554688 23.753906 C 12.132812 24.238281 10.609375 24.367188 9.117188 24.230469 C 7.339844 24.0625 5.578125 23.414062 4.179688 22.261719 C 2.792969 21.128906 1.808594 19.515625 1.355469 17.761719 C 1.15625 17.003906 1.042969 16.226562 1.015625 15.4375 C 1.015625 10.292969 1.015625 5.144531 1.015625 0 L 6.742188 0 C 6.742188 1.957031 6.738281 3.914062 6.742188 5.871094 C 8.582031 5.238281 10.554688 5.082031 12.464844 5.421875 C 14.1875 5.734375 15.847656 6.539062 17.082031 7.820312 C 18.328125 9.070312 19.117188 10.746094 19.4375 12.492188 Z M 38.335938 0 C 40.179688 -0.00390625 42.027344 0 43.867188 0 C 43.871094 4.363281 43.863281 8.730469 43.878906 13.09375 C 43.976562 13.03125 44.035156 12.921875 44.101562 12.820312 C 45.636719 10.429688 47.183594 8.050781 48.71875 5.660156 C 51.117188 5.648438 53.515625 5.65625 55.914062 5.65625 C 53.585938 8.507812 51.246094 11.355469 48.910156 14.203125 C 48.859375 14.257812 48.828125 14.328125 48.898438 14.378906 C 51.488281 17.53125 54.101562 20.671875 56.691406 23.828125 C 54.34375 23.835938 51.996094 23.832031 49.648438 23.832031 C 49.585938 23.84375 49.523438 23.816406 49.488281 23.757812 C 47.617188 20.972656 45.753906 18.183594 43.871094 15.40625 C 43.859375 18.210938 43.882812 21.011719 43.863281 23.820312 C 43.085938 23.855469 42.308594 23.824219 41.527344 23.832031 L 38.335938 23.832031 C 38.332031 15.886719 38.335938 7.945312 38.335938 0 Z M 37.171875 16.582031 C 33.355469 16.582031 29.527344 16.578125 25.703125 16.582031 C 25.773438 17.40625 26.144531 18.203125 26.761719 18.75 C 27.671875 19.582031 28.910156 19.910156 30.105469 20.011719 C 31.976562 20.105469 33.855469 19.863281 35.652344 19.289062 C 35.894531 20.566406 36.140625 21.847656 36.378906 23.125 C 34.28125 23.984375 32 24.246094 29.761719 24.246094 C 28.40625 24.214844 27.046875 24.035156 25.773438 23.546875 C 24.855469 23.207031 23.988281 22.707031 23.246094 22.054688 C 22.429688 21.339844 21.777344 20.457031 21.324219 19.464844 C 20.691406 18.082031 20.425781 16.546875 20.429688 15.027344 C 20.414062 13.523438 20.699219 12.03125 21.273438 10.648438 C 21.902344 9.121094 22.921875 7.746094 24.257812 6.796875 C 25.503906 5.902344 27 5.410156 28.503906 5.285156 C 29.75 5.175781 31.023438 5.28125 32.21875 5.671875 C 33.207031 6.011719 34.132812 6.558594 34.867188 7.3125 C 35.566406 8.007812 36.105469 8.863281 36.496094 9.773438 C 37.382812 11.90625 37.535156 14.308594 37.171875 16.582031 Z M 25.679688 12.691406 L 32.222656 12.691406 C 32.214844 11.71875 31.964844 10.695312 31.316406 9.949219 C 30.792969 9.324219 29.980469 9.019531 29.1875 9.019531 C 28.402344 8.988281 27.597656 9.246094 27.015625 9.792969 C 26.214844 10.527344 25.785156 11.613281 25.679688 12.691406 Z M 72.925781 13.375 C 73.148438 15.710938 72.777344 18.175781 71.53125 20.179688 C 70.480469 21.898438 68.785156 23.15625 66.902344 23.761719 C 65.488281 24.238281 63.976562 24.363281 62.503906 24.234375 C 60.96875 24.082031 59.457031 23.59375 58.171875 22.722656 C 56.929688 21.890625 55.9375 20.722656 55.300781 19.347656 C 54.355469 17.316406 54.183594 14.976562 54.554688 12.78125 C 54.855469 10.976562 55.648438 9.226562 56.921875 7.929688 C 58.074219 6.722656 59.597656 5.933594 61.195312 5.550781 C 61.789062 5.402344 62.398438 5.328125 63.007812 5.277344 C 64.5 5.171875 66.027344 5.332031 67.4375 5.867188 C 69.179688 6.511719 70.703125 7.761719 71.660156 9.386719 C 72.375 10.59375 72.792969 11.972656 72.925781 13.375 Z M 67.203125 15.910156 C 67.347656 14.523438 67.261719 13.089844 66.796875 11.769531 C 66.515625 10.996094 66.070312 10.25 65.394531 9.777344 C 64.796875 9.351562 64.042969 9.203125 63.332031 9.292969 C 62.6875 9.363281 62.09375 9.644531 61.621094 10.089844 C 61.007812 10.675781 60.636719 11.472656 60.410156 12.28125 C 60.117188 13.347656 60.070312 14.464844 60.132812 15.554688 C 60.203125 16.457031 60.382812 17.359375 60.773438 18.179688 C 61.097656 18.859375 61.59375 19.484375 62.253906 19.847656 C 62.867188 20.195312 63.601562 20.277344 64.292969 20.167969 C 65.0625 20.027344 65.734375 19.53125 66.183594 18.890625 C 66.800781 18.023438 67.078125 16.957031 67.203125 15.910156 Z M 17.429688 33.808594 C 35.222656 31.246094 53.015625 28.695312 70.808594 26.125 C 70.820312 28.03125 70.8125 29.941406 70.808594 31.851562 C 65.734375 32.566406 60.660156 33.308594 55.585938 34.03125 C 37.398438 36.640625 19.207031 39.261719 1.019531 41.871094 C 1.015625 39.964844 1.007812 38.0625 1.019531 36.160156 C 6.492188 35.386719 11.960938 34.585938 17.429688 33.808594 Z M 17.429688 33.808594 "/>
</g>
</svg>
