<?xml version="1.0" encoding="UTF-8"?>
<svg xmlns="http://www.w3.org/2000/svg" xmlns:xlink="http://www.w3.org/1999/xlink" width="195px" height="197px" viewBox="0 0 195 197" version="1.1">
<g id="surface1">
<path style="fill-rule:evenodd;fill:rgb(0%,0%,0%);fill-opacity:1;stroke-width:1;stroke-linecap:butt;stroke-linejoin:miter;stroke:rgb(0%,0%,0%);stroke-opacity:1;stroke-miterlimit:4;" d="M 74.633455 174.455347 C 124.709559 196.435343 206.932358 193.825501 262.058153 152.218894 C 339.141088 208.70009 413.338485 202.907146 484.094276 152.218894 C 531.254785 186.312778 603.859124 200.885651 671.984869 175.16438 L 702.538506 217.600705 C 622.885639 324.046036 652.372229 425.799687 734.519883 515.318762 L 700.028689 550.332879 C 707.843687 779.908424 530.037449 834.715097 427.931491 840.40244 L 373.031128 885.29775 L 318.551573 841.081301 C 136.266739 825.316651 40.007001 729.159828 45.973452 550.906139 L 10.505383 515.062303 C 79.788348 440.116101 131.893346 337.668504 42.847453 217.58562 Z M 74.633455 174.455347 " transform="matrix(0.259917,0,0,0.258936,0.546817,-35.368036)"/>
<path style=" stroke:none;fill-rule:evenodd;fill:rgb(0%,30.196078%,59.607843%);fill-opacity:1;" d="M 21.023438 106.082031 L 173.480469 106.082031 C 177.488281 148.113281 150.683594 170.816406 109.929688 173.039062 L 84.03125 173.105469 C 45.03125 170.316406 15.984375 149.804688 21.023438 106.082031 Z M 21.023438 106.082031 "/>
<path style=" stroke:none;fill-rule:nonzero;fill:rgb(64.705882%,0%,26.666667%);fill-opacity:1;" d="M 86.75 106.585938 L 108.34375 106.585938 L 108.34375 173.742188 L 86.75 173.742188 Z M 86.75 106.585938 "/>
<path style=" stroke:none;fill-rule:nonzero;fill:rgb(64.705882%,0%,26.666667%);fill-opacity:1;" d="M 43.761719 106.585938 L 65.363281 106.585938 L 65.363281 166.609375 L 43.761719 166.609375 Z M 43.761719 106.585938 "/>
<path style=" stroke:none;fill-rule:nonzero;fill:rgb(64.705882%,0%,26.666667%);fill-opacity:1;" d="M 51.296875 163.53125 L 65.363281 163.53125 L 65.363281 169.71875 L 51.296875 169.71875 Z M 51.296875 163.53125 "/>
<path style=" stroke:none;fill-rule:nonzero;fill:rgb(64.705882%,0%,26.666667%);fill-opacity:1;" d="M 129.484375 106.585938 L 151.078125 106.585938 L 151.078125 166.609375 L 129.484375 166.609375 Z M 129.484375 106.585938 "/>
<path style=" stroke:none;fill-rule:nonzero;fill:rgb(64.705882%,0%,26.666667%);fill-opacity:1;" d="M 129.484375 163.53125 L 143.546875 163.53125 L 143.546875 169.71875 L 129.484375 169.71875 Z M 129.484375 163.53125 "/>
<path style=" stroke:none;fill-rule:evenodd;fill:rgb(100%,100%,100%);fill-opacity:1;" d="M 96.847656 23.6875 L 96.847656 83.34375 L 24.066406 83.867188 L 31.566406 55.152344 L 22.226562 20.800781 L 68.289062 14.902344 Z M 96.847656 23.6875 "/>
<path style=" stroke:none;fill-rule:evenodd;fill:rgb(100%,92.941176%,0.784314%);fill-opacity:1;" d="M 97.894531 23.6875 L 97.894531 83.34375 L 170.671875 83.867188 L 163.171875 55.152344 L 172.515625 20.800781 L 126.453125 14.902344 Z M 97.894531 23.6875 "/>
<path style=" stroke:none;fill-rule:nonzero;fill:rgb(85.882353%,0%,18.823529%);fill-opacity:1;" d="M 54.789062 16.605469 L 75.660156 16.605469 L 75.660156 82.972656 L 54.789062 82.972656 Z M 54.789062 16.605469 "/>
<path style=" stroke:none;fill-rule:nonzero;fill:rgb(85.882353%,0%,18.823529%);fill-opacity:1;" d="M 96.847656 41.359375 L 96.847656 62.144531 L 31.917969 62.144531 L 31.917969 41.359375 Z M 96.847656 41.359375 "/>
<path style=" stroke:none;fill-rule:nonzero;fill:rgb(85.882353%,0%,18.823529%);fill-opacity:1;" d="M 104.425781 21.308594 L 112.148438 21.308594 L 112.148438 82.539062 L 104.425781 82.539062 Z M 104.425781 21.308594 "/>
<path style=" stroke:none;fill-rule:nonzero;fill:rgb(85.882353%,0%,18.823529%);fill-opacity:1;" d="M 119.078125 16.925781 L 126.789062 16.925781 L 126.789062 82.679688 L 119.078125 82.679688 Z M 119.078125 16.925781 "/>
<path style=" stroke:none;fill-rule:nonzero;fill:rgb(85.882353%,0%,18.823529%);fill-opacity:1;" d="M 133.820312 20.632812 L 141.542969 20.632812 L 141.542969 82.816406 L 133.820312 82.816406 Z M 133.820312 20.632812 "/>
<path style=" stroke:none;fill-rule:nonzero;fill:rgb(85.882353%,0%,18.823529%);fill-opacity:1;" d="M 148.425781 22.90625 L 156.148438 22.90625 L 156.148438 82.769531 L 148.425781 82.769531 Z M 148.425781 22.90625 "/>
<path style="fill-rule:evenodd;fill:rgb(92.941176%,73.333333%,0%);fill-opacity:1;stroke-width:0.937881;stroke-linecap:butt;stroke-linejoin:miter;stroke:rgb(87.058824%,70.588235%,1.960784%);stroke-opacity:1;stroke-miterlimit:4;" d="M 261.592259 170.472699 C 209.878011 208.368202 128.060991 212.350851 81.095858 193.388013 L 62.279746 217.615791 C 142.984632 331.196701 96.605623 445.426299 32.612811 515.424362 L 62.084371 546.606689 C 50.136441 717.770057 150.01813 816.732836 325.615129 826.945916 L 373.211474 866.681885 L 420.702617 826.312313 C 522.973893 824.547275 702.267987 767.191104 682.955924 546.350231 L 712.60783 515.665735 C 637.448588 432.301662 611.538863 318.147493 684.143202 217.615791 L 666.499341 193.553957 C 602.251038 214.674062 528.744968 202.96749 484.515084 171.000702 C 418.147714 218.536024 333.896022 223.453992 261.592259 170.472699 Z M 485.08618 202.997661 C 524.972729 227.768528 569.067353 234.828677 645.053182 228.160758 C 607.000152 294.010229 602.882249 372.426163 636.576915 448.156827 L 109.214822 447.855111 C 137.574249 380.195345 144.096766 302.307414 99.626421 226.667265 C 154.43661 234.617476 207.969348 232.701581 261.366827 203.661436 C 333.775791 246.158105 408.318851 246.957652 485.08618 202.997661 Z M 90.488884 548.854472 L 656.024237 548.854472 C 670.902792 705.354452 571.471968 789.849959 420.28181 798.147144 L 324.17236 798.388516 C 179.549807 787.994407 71.793004 711.645227 90.488884 548.854472 Z M 90.488884 548.854472 " transform="matrix(0.259917,0,0,0.258936,0.546817,-35.368036)"/>
<path style="fill:none;stroke-width:4;stroke-linecap:butt;stroke-linejoin:miter;stroke:rgb(0%,0%,0%);stroke-opacity:1;stroke-miterlimit:4;" d="M 99.010238 227.481898 C 143.465555 303.152218 136.943037 381.009978 108.583611 448.654658 L 635.975761 448.971459 C 602.266067 373.255882 606.398999 294.824862 644.452029 228.975391 C 568.436142 235.64331 524.386604 228.613332 484.469997 203.842465 C 407.68764 247.772285 333.174637 246.987823 260.735615 204.460983 C 207.353166 233.501128 153.805399 235.432109 99.010238 227.481898 Z M 99.010238 227.481898 " transform="matrix(0.259917,0,0,0.258936,0.546817,-35.368036)"/>
<path style="fill:none;stroke-width:4;stroke-linecap:butt;stroke-linejoin:miter;stroke:rgb(0%,0%,0%);stroke-opacity:1;stroke-miterlimit:4;" d="M 90.488884 548.854472 L 656.009209 548.854472 C 670.887763 705.354452 571.456939 789.865045 420.28181 798.162229 L 324.187389 798.403602 C 179.549807 788.009493 71.793004 711.645227 90.488884 548.854472 Z M 90.488884 548.854472 " transform="matrix(0.259917,0,0,0.258936,0.546817,-35.368036)"/>
<path style="fill:none;stroke-width:4;stroke-linecap:butt;stroke-linejoin:miter;stroke:rgb(0%,0%,0%);stroke-opacity:1;stroke-miterlimit:4;" d="M 372.700494 235.386851 L 372.700494 449.07706 " transform="matrix(0.259917,0,0,0.258936,0.546817,-35.368036)"/>
<path style="fill-rule:nonzero;fill:rgb(92.941176%,73.333333%,0%);fill-opacity:1;stroke-width:3;stroke-linecap:butt;stroke-linejoin:miter;stroke:rgb(0%,0%,0%);stroke-opacity:1;stroke-miterlimit:4;" d="M 391.553108 656.713796 C 391.564324 688.404961 365.869608 714.095632 334.174599 714.095632 C 302.47959 714.095632 276.784875 688.404961 276.79609 656.713796 C 276.784875 625.011373 302.47959 599.320702 334.174599 599.320702 C 365.869608 599.320702 391.564324 625.011373 391.553108 656.713796 Z M 391.553108 656.713796 " transform="matrix(0.34829,0,0,0.346977,-18.686628,-89.540123)"/>
<path style="fill:none;stroke-width:3.5;stroke-linecap:butt;stroke-linejoin:miter;stroke:rgb(0%,0%,0%);stroke-opacity:1;stroke-miterlimit:4;" d="M 329.462513 608.15671 C 320.475265 640.862702 314.899564 673.070863 340.794261 688.563969 C 358.888987 699.350308 371.107436 677.294884 374.503955 668.771413 " transform="matrix(0.259917,0,0,0.258936,0.546817,-35.368036)"/>
<path style="fill:none;stroke-width:3.5;stroke-linecap:butt;stroke-linejoin:miter;stroke:rgb(0%,0%,0%);stroke-opacity:1;stroke-miterlimit:4;" d="M 302.651058 701.77912 C 317.81516 701.085174 325.705302 699.848139 335.428964 685.094237 " transform="matrix(0.259917,0,0,0.258936,0.546817,-35.368036)"/>
<path style="fill:none;stroke-width:3.5;stroke-linecap:butt;stroke-linejoin:miter;stroke:rgb(0%,0%,0%);stroke-opacity:1;stroke-miterlimit:4;" d="M 373.887772 669.329587 C 389.081932 659.976397 402.607891 664.51722 408.889947 687.91528 C 423.708386 681.971479 437.970758 693.391421 441.667853 704.947136 " transform="matrix(0.259917,0,0,0.258936,0.546817,-35.368036)"/>
<path style="fill:none;stroke-width:3.5;stroke-linecap:butt;stroke-linejoin:miter;stroke:rgb(0%,0%,0%);stroke-opacity:1;stroke-miterlimit:4;" d="M 409.205553 687.91528 C 397.963978 715.054615 368.417274 727.590906 326.922639 731.739498 " transform="matrix(0.259917,0,0,0.258936,0.546817,-35.368036)"/>
<path style="fill:none;stroke-width:3.5;stroke-linecap:butt;stroke-linejoin:miter;stroke:rgb(0%,0%,0%);stroke-opacity:1;stroke-miterlimit:4;" d="M 373.902801 670.461021 C 364.554861 661.907378 350.202316 652.131787 371.107436 626.983776 C 362.240419 615.744863 359.820775 604.732236 371.438071 594.307956 " transform="matrix(0.259917,0,0,0.258936,0.546817,-35.368036)"/>
<path style="fill:none;stroke-width:3.5;stroke-linecap:butt;stroke-linejoin:miter;stroke:rgb(0%,0%,0%);stroke-opacity:1;stroke-miterlimit:4;" d="M 450.354524 675.394074 C 436.693306 651.241725 404.907304 617.79653 371.107436 626.68206 " transform="matrix(0.259917,0,0,0.258936,0.546817,-35.368036)"/>
<path style=" stroke:none;fill-rule:nonzero;fill:rgb(0%,0%,0%);fill-opacity:1;" d="M 69.761719 84.226562 L 69.761719 84.304688 L 66.132812 84.304688 L 66.132812 103.113281 L 70.058594 103.113281 L 70.058594 95.304688 L 75.652344 95.304688 L 75.652344 91.324219 L 70.058594 91.324219 L 70.058594 88.277344 L 79.714844 88.277344 L 79.714844 84.226562 Z M 69.761719 84.226562 "/>
<path style="fill-rule:evenodd;fill:rgb(0%,0%,0%);fill-opacity:1;stroke-width:0.2;stroke-linecap:butt;stroke-linejoin:miter;stroke:rgb(0%,0%,0%);stroke-opacity:1;stroke-miterlimit:4;" d="M 380.575607 484.634266 L 394.101566 477.574116 C 385.47501 458.460421 350.397691 453.014451 338.870569 477.574116 C 326.952696 506.855634 339.606982 534.070398 362.661227 536.725497 C 377.29932 538.837508 388.886557 531.671758 393.816018 518.954437 L 380.41029 511.290856 C 376.863483 520.176386 363.247352 526.301216 352.892479 511.441714 C 349.661278 504.803966 348.84972 494.590887 352.426585 484.634266 C 360.947939 472.942779 373.346734 474.209985 380.575607 484.634266 Z M 380.575607 484.634266 " transform="matrix(0.259917,0,0,0.258936,0.546817,-35.368036)"/>
<path style="fill-rule:evenodd;fill:rgb(0%,0%,0%);fill-opacity:1;stroke-width:1;stroke-linecap:butt;stroke-linejoin:miter;stroke:rgb(0%,0%,0%);stroke-opacity:1;stroke-miterlimit:4;" d="M 432.364999 462.065925 L 432.635519 535.367776 L 472.567154 535.232004 C 485.537045 533.391538 502.579753 512.13566 482.62145 495.631806 C 493.156668 486.323874 491.849159 466.455889 470.733635 462.231868 Z M 447.709448 476.518111 L 467.577578 476.518111 C 476.324365 479.022352 473.709346 487.440223 467.848097 488.843201 L 447.709448 488.843201 Z M 447.874765 503.159615 L 468.764857 503.43116 C 479.089672 506.523746 476.77523 518.290662 469.065434 520.297072 L 448.010025 520.1613 Z M 447.874765 503.159615 " transform="matrix(0.259917,0,0,0.258936,0.546817,-35.368036)"/>
</g>
</svg>
