<?xml version="1.0" encoding="UTF-8"?>
<!DOCTYPE svg  PUBLIC '-//W3C//DTD SVG 1.1//EN'  'http://www.w3.org/Graphics/SVG/1.1/DTD/svg11.dtd'>
<svg width="1106pt" height="352pt" version="1.1" viewBox="0 0 1106 352" xmlns="http://www.w3.org/2000/svg">
<path d="m128.04 146.73c6.84-9.12 16.32-16.23 27.18-19.8-1.51 1.62-3.05 3.21-4.54 4.84 6.39-0.93 12.94-0.05 18.93 2.33 0.65 5.7 1.21 11.41 2.02 17.08 1.43-5.58 1.54-11.41 2.33-17.1 6.02-2.44 12.6-3.17 19.04-2.34-1.64-1.65-3.31-3.26-4.98-4.87 10.84 3.54 20.62 10.44 27.2 19.8-1.9-0.96-3.81-1.89-5.73-2.8 2.44 5.73 4.27 11.95 3.54 18.24-4.94 3.06-10.81 4.41-15.56 7.82 5.62-1 11.2-2.26 16.8-3.33 4.26 4.89 6.9 10.95 8.22 17.25 1.06-1.92 2.09-3.85 3.05-5.82 0.06 11.46-3.95 22.55-10.33 31.97 0.33-2.18 0.63-4.36 0.9-6.54-4.74 4.17-10.23 7.54-16.38 9.13-4.13-4.15-7.78-8.76-12.04-12.76 1.96 5.55 6.08 10.12 7.99 15.64-3.22 5.42-8.2 9.47-13.53 12.7 2.04 0.41 4.09 0.79 6.13 1.22-5.3 1.44-10.74 2.34-16.23 2.58-5.78-0.1-11.46-1.27-17.08-2.51 2.11-0.35 4.17-0.9 6.24-1.41-5.44-3.21-10.26-7.51-13.6-12.91 2.8-5.15 5.93-10.12 8.51-15.38-4.49 3.81-8.11 8.53-12.14 12.8-6.3-1.34-11.63-5.05-16.61-8.92 0.34 2.1 0.73 4.2 1.16 6.29-6.72-9.15-10.54-20.41-10.55-31.77 1.06 1.87 2.03 3.79 3.07 5.68 1.31-6.34 3.94-12.44 8.27-17.3 5.64 1.11 11.23 2.54 16.93 3.31-5.01-3.02-10.54-5.02-15.79-7.55-0.53-6.37 1.05-12.67 3.59-18.47-2.02 0.94-4 1.94-6.01 2.9m19.8 23.49c2.93 9.52 6.06 18.97 9.2 28.42 9.85-0.04 19.69 0 29.54-0.02 3.04-9.44 6.11-18.87 9.21-28.3-7.91-5.93-16.02-11.59-23.95-17.49-8.06 5.71-16 11.61-24 17.39z" fill="#fff"/>
<path d="m154.75 0h4.29c4.15 21 7.83 42.09 11.88 63.11 0.76 3.42 1.2 6.91 1.25 10.42-23.44 3.8-44.98 18.18-56.89 38.81-0.75 2.11-3.1 2.8-4.89 1.41-19.51-11.21-38.9-22.64-58.4-33.88-1.18-0.94-3.49-1.74-2.62-3.65 1.04-3.01 3.04-5.56 4.72-8.23 12-18.54 28.11-34.37 46.73-46.22 16.4-10.61 34.92-17.55 53.93-21.77z" fill="#8b2c86"/>
<path d="m185.56 17.81c38.39-3.66 77.96 7.57 108.6 31 2.94 2.38 6.23 4.44 8.66 7.37 1.29 1.57-0.51 3.12-1.39 4.32-13.46 15.5-26.88 31.03-40.31 46.54-1.73 1.91-3.21 4.08-5.23 5.69-1.96 1.07-3.39-0.83-4.83-1.85-15.16-12.77-35.3-19.33-55.06-18.3-3.35 0.11-6.64 0.9-9.99 0.82-1.06-1.07-1.4-2.53-1.61-3.96-2.87-19.85-5.85-39.68-8.77-59.52-0.44-3.28-1.24-6.56-1.06-9.88 3.2-2.13 7.34-1.6 10.99-2.23z" fill="#e31d2c"/>
<g fill="#030406">
<path d="m783.54 64.88c11.31-3.27 24.45 3.37 28.12 14.65 3.09 8.77 0.36 19.3-6.73 25.35-6.78 6.09-17.24 7.68-25.47 3.74-9.09-4.16-14.36-14.71-12.73-24.49 1.11-9.01 8.01-16.96 16.81-19.25z"/>
<path d="m407.24 88.25c13.77 0.03 27.53-0.07 41.3 0.05-0.07 40.65-0.05 81.3-0.02 121.95 16.58-0.01 33.15 0.01 49.73-0.01v36.26c-30.32 0.02-60.64-0.04-90.96 0.03-0.11-52.76-0.01-105.52-0.05-158.28z"/>
<path d="m662.52 88.22c13.75 0.06 27.49 0.02 41.23 0.02 0.01 40.67 0 81.34 0.01 122 16.59 0.05 33.18-0.07 49.77 0.06-0.07 12.07-0.02 24.13-0.02 36.19-30.34 0.01-60.68 0.02-91.02 0 0.04-52.76-0.03-105.51 0.03-158.27z"/>
<path d="m554.43 118.23c9.98-1.92 20.65-1.64 30.16 2.21 6.62 2.67 12.21 7.24 17.61 11.81 0.08-4.26 0.01-8.52 0.09-12.78 12.65 0.07 25.31 0.01 37.96 0.03-0.04 42.27 0.08 84.55-0.05 126.83-12.89 0.41-25.81 0.06-38.71 0.16 0-3.94 0.02-7.88-0.01-11.81-10.15 9.26-23.62 15.03-37.46 14.85-16.11 0.29-32.64-5.86-43.37-18.13-11.21-12.59-15.82-29.81-15.92-46.38-0.34-14.52 3.88-29.15 12.1-41.15 8.67-12.88 22.26-22.63 37.6-25.64m12.05 35.34c-8.94 1.79-16.68 8.26-20.19 16.65-5.74 13.79-1.77 32.12 11.19 40.43 11.93 7.54 28.97 4.51 38.2-5.97 11.31-12.31 9.98-33.81-2.64-44.72-7.11-6.32-17.37-8.49-26.56-6.39z"/>
<path d="m847.47 128.32c11.54-9.56 27.31-12.9 41.94-10.54 10.95 1.47 20.5 7.82 28.04 15.62 0.08-4.63 0.04-9.26 0.04-13.89 12.26-0.01 24.51-0.05 36.77 0.02-0.03 37.83 0 75.65-0.01 113.48-0.19 14.25-5.07 28.75-15.1 39.09-11.61 12.19-28.52 17.98-45.05 18.77-16.99 0.83-34.87-2.81-48.63-13.26-9.95-7.36-16.76-18.82-18.29-31.12 14.26 0.08 28.54-0.12 42.8 0.09 2.54 2.93 4.73 6.42 8.35 8.16 5.17 2.55 11.2 2.33 16.81 1.84 7.21-0.81 14.93-3.99 18.53-10.68 3.13-5.51 1.77-12.03 2.13-18.05-10.52 8.77-23.89 14.95-37.8 14.42-13.37-0.18-26.61-5.76-35.85-15.46-12.56-12.75-17.99-31.17-17.39-48.78 0.51-18.64 7.94-37.8 22.71-49.71m36.04 22.27c-9.61 1.49-17.17 9.39-19.75 18.54-3.2 11.03-1.92 24.26 6.15 32.94 9.89 10.96 28.78 10.02 38.87-0.18 11.35-10.89 11.69-30.5 1.96-42.51-6.48-7.89-17.51-10.31-27.23-8.79z"/>
<path d="m998.58 127.49c12.84-9.07 29.49-12.51 44.88-9.19 9.34 2 17.3 7.66 24.33 13.89-0.06-4.22-0.05-8.45-0.05-12.67 12.75 0 25.51-0.1 38.26 0.05v126.89c-12.92 0.08-25.85 0.04-38.77 0.02 0.02-3.95 0.02-7.9-0.01-11.84-4.29 3.65-8.83 7.1-13.97 9.49-13.46 6.72-29.5 6.82-43.67 2.37-12.8-4.07-23.79-13.23-30.26-24.98-7.69-13.73-9.83-29.95-8.54-45.46 1.92-19.1 11.96-37.51 27.8-48.57m33.05 26.22c-10.44 2.23-18.93 11-21.25 21.36-2.95 12.67 1.11 27.68 12.21 35.22 12.6 8.41 31.28 4.66 40.26-7.37 9.48-12.3 7.96-31.68-3.38-42.31-7.3-6.87-18.19-9.33-27.84-6.9z"/>
<path d="m163.59 119.8c15.88-2.37 32.64 2.33 45.1 12.44 11.87 9.5 19.87 23.78 21.51 38.92 1.61 13.07-1.35 26.67-8.32 37.85-7.78 12.69-20.55 22.22-34.95 26-12.85 3.38-26.88 2.38-39.03-3.07-13.21-5.84-24.11-16.69-29.96-29.9-6.75-15.11-6.72-33.11 0.14-48.19 8.02-18.14 25.82-31.5 45.51-34.05m-35.55 26.93c2.01-0.96 3.99-1.96 6.01-2.9-2.54 5.8-4.12 12.1-3.59 18.47 5.25 2.53 10.78 4.53 15.79 7.55-5.7-0.77-11.29-2.2-16.93-3.31-4.33 4.86-6.96 10.96-8.27 17.3-1.04-1.89-2.01-3.81-3.07-5.68 0.01 11.36 3.83 22.62 10.55 31.77-0.43-2.09-0.82-4.19-1.16-6.29 4.98 3.87 10.31 7.58 16.61 8.92 4.03-4.27 7.65-8.99 12.14-12.8-2.58 5.26-5.71 10.23-8.51 15.38 3.34 5.4 8.16 9.7 13.6 12.91-2.07 0.51-4.13 1.06-6.24 1.41 5.62 1.24 11.3 2.41 17.08 2.51 5.49-0.24 10.93-1.14 16.23-2.58-2.04-0.43-4.09-0.81-6.13-1.22 5.33-3.23 10.31-7.28 13.53-12.7-1.91-5.52-6.03-10.09-7.99-15.64 4.26 4 7.91 8.61 12.04 12.76 6.15-1.59 11.64-4.96 16.38-9.13-0.27 2.18-0.57 4.36-0.9 6.54 6.38-9.42 10.39-20.51 10.33-31.97-0.96 1.97-1.99 3.9-3.05 5.82-1.32-6.3-3.96-12.36-8.22-17.25-5.6 1.07-11.18 2.33-16.8 3.33 4.75-3.41 10.62-4.76 15.56-7.82 0.73-6.29-1.1-12.51-3.54-18.24 1.92 0.91 3.83 1.84 5.73 2.8-6.58-9.36-16.36-16.26-27.2-19.8 1.67 1.61 3.34 3.22 4.98 4.87-6.44-0.83-13.02-0.1-19.04 2.34-0.79 5.69-0.9 11.52-2.33 17.1-0.81-5.67-1.37-11.38-2.02-17.08-5.99-2.38-12.54-3.26-18.93-2.33 1.49-1.63 3.03-3.22 4.54-4.84-10.86 3.57-20.34 10.68-27.18 19.8z"/>
<path d="m770.22 119.53c12.76-0.08 25.51 0 38.27-0.04 0.02 42.34 0.02 84.68 0 127.02-12.76-0.03-25.51 0.04-38.27-0.04 0.05-42.31 0.04-84.63 0-126.94z"/>
<path d="m147.84 170.22c8-5.78 15.94-11.68 24-17.39 7.93 5.9 16.04 11.56 23.95 17.49-3.1 9.43-6.17 18.86-9.21 28.3-9.85 0.02-19.69-0.02-29.54 0.02-3.14-9.45-6.27-18.9-9.2-28.42z"/>
</g>
<path d="m23.46 78.34c1.2-0.75 2.43 0.39 3.52 0.81 19.91 10.73 39.85 21.39 59.77 32.09 2.01 0.78 2.81 3.08 1.38 4.8-10.99 20.27-12.36 45.32-3.88 66.74 1.18 1.82-0.59 3.5-2.29 4.03-18.99 7.35-38 14.64-57 21.98-2.96 1.09-5.83 2.5-8.92 3.21-0.95-0.42-1.63-1.09-2.04-2.02-16.42-41.51-13.48-90.06 7.54-129.41 0.41-0.98 1.05-1.72 1.92-2.23z" fill="#135da6"/>
<path d="m297.46 82.52c2.38-1.43 4.4 1.6 6 3 31.38 30.83 48.61 75.44 45.86 119.35-0.34 0.45-1.02 1.33-1.36 1.77-22.64-0.73-45.28-2.2-67.92-3.11-1.88-0.25-4.38 0.17-5.67-1.56-0.32-3.3-0.02-6.61-0.18-9.91-0.99-20.39-10.2-40.25-25.15-54.15-1.92-1.38-0.93-3.9 0.56-5.15 16.02-16.68 31.71-33.7 47.86-50.24z" fill="#ef8d22"/>
<path d="m63.84 203.59c1.6-0.53 3.43-1.74 5.08-0.73 0.79 1.03 1.32 2.23 1.9 3.4 8.16 18.03 23.47 32.66 41.71 40.27 3.02 1.35 6.31 2.02 9.23 3.59 0.58 1.62 0.04 3.32-0.41 4.9-6.92 22-13.73 44.03-20.61 66.04-1.23 0.25-2.44 0.24-3.65-0.03-41.99-12.82-77.65-44.57-95.45-84.68-0.69-1.72-0.58-3.62-0.75-5.43 20.93-9.22 42-18.14 62.95-27.33z" fill="#219ad1"/>
<path d="m252.22 212.07c1.76-1.03 3.82-0.59 5.73-0.51 22.15 1.84 44.33 3.41 66.47 5.26 1.75-0.14 2.75 1.65 2.44 3.22-3.08 44.22-26.42 86.45-62.01 112.81-1.25 0.82-2.62 1.39-3.95 2.03-13.58-18.03-26.69-36.41-40.17-54.52-1.21-1.71-2.63-3.37-3.16-5.43 0.33-1.29 1.59-1.95 2.5-2.78 16.11-11.94 27.22-30.28 30.69-49.99 0.64-3.34 0.71-6.77 1.46-10.09z" fill="#fcdc18"/>
<path d="m193.91 262.85c1.43-1.34 3.44-0.87 4.38 0.78 12.01 17.71 23.86 35.54 35.84 53.28 1.3 1.93 2.68 3.84 3.65 5.99-0.95 2.57-3.68 3.63-5.77 5.08-20.49 12.87-44 20.88-68.09 23.13-9.94-0.16-19.91-0.28-29.84 0.15-8.63-1.14-17.27-2.47-25.67-4.81-1.41-0.26-2.39-1.33-3.44-2.19 6.48-22.78 12.59-45.67 19-68.47 0.27-1.93 2.29-3.03 4.03-2.13 22.17 6.3 46.84 2.03 65.91-10.81z" fill="#28a24b"/>
</svg>
