<?xml version="1.0" encoding="UTF-8"?>
<svg xmlns="http://www.w3.org/2000/svg" xmlns:xlink="http://www.w3.org/1999/xlink" width="121px" height="36px" viewBox="0 0 121 36" version="1.1">
<g id="surface1">
<path style=" stroke:none;fill-rule:nonzero;fill:rgb(74.901961%,0%,0%);fill-opacity:1;" d="M 97.046875 30.171875 L 24.53125 30.171875 L 30.3125 36 Z M 97.046875 30.171875 "/>
<path style=" stroke:none;fill-rule:nonzero;fill:rgb(74.901961%,0%,0%);fill-opacity:1;" d="M 108.6875 26.453125 L 108.6875 14.792969 C 108.6875 12.605469 110.207031 10.785156 112.375 10.785156 C 114.546875 10.785156 116.0625 12.605469 116.0625 14.792969 L 116.0625 26.453125 L 120.546875 26.453125 L 120.546875 14.792969 C 120.546875 9.984375 117.292969 6.121094 112.519531 6.121094 C 110.351562 6.121094 108.6875 7.359375 108.6875 7.359375 L 108.6875 6.558594 L 104.207031 6.558594 L 104.207031 26.378906 L 108.6875 26.378906 Z M 108.6875 26.453125 "/>
<path style=" stroke:none;fill-rule:nonzero;fill:rgb(74.901961%,0%,0%);fill-opacity:1;" d="M 93.867188 6.046875 C 88.660156 6.046875 84.972656 10.640625 84.972656 16.46875 C 84.972656 22.589844 89.601562 26.890625 94.300781 26.890625 C 96.6875 26.890625 99.652344 26.089844 102.183594 22.445312 L 98.207031 20.113281 C 95.167969 24.632812 90.035156 22.371094 89.457031 17.78125 L 102.328125 17.78125 C 103.484375 10.785156 98.929688 6.046875 93.867188 6.046875 Z M 97.769531 13.917969 L 89.746094 13.917969 C 90.6875 9.328125 96.902344 9.035156 97.769531 13.917969 Z M 97.769531 13.917969 "/>
<path style=" stroke:none;fill-rule:nonzero;fill:rgb(74.901961%,0%,0%);fill-opacity:1;" d="M 83.527344 21.714844 C 83.09375 22.007812 82.589844 22.226562 82.007812 22.226562 C 81.285156 22.226562 79.914062 21.644531 79.914062 19.820312 L 79.914062 11.296875 L 83.746094 11.296875 L 83.746094 6.558594 L 79.914062 6.558594 L 79.914062 1.601562 L 75.429688 1.601562 L 75.429688 6.558594 L 73.042969 6.558594 L 73.042969 11.296875 L 75.429688 11.296875 L 75.429688 19.820312 C 75.429688 24.265625 78.757812 26.890625 82.082031 26.890625 C 83.3125 26.890625 85.046875 26.453125 86.421875 25.652344 Z M 83.527344 21.714844 "/>
<path style=" stroke:none;fill-rule:nonzero;fill:rgb(74.901961%,0%,0%);fill-opacity:1;" d="M 67.042969 6.558594 L 67.042969 18.21875 C 67.042969 20.40625 65.523438 22.226562 63.355469 22.226562 C 61.1875 22.226562 59.667969 20.40625 59.667969 18.21875 L 59.667969 6.558594 L 55.1875 6.558594 L 55.1875 18.21875 C 55.1875 23.027344 58.4375 26.890625 63.210938 26.890625 C 65.378906 26.890625 67.042969 25.652344 67.042969 25.652344 L 67.042969 26.378906 L 71.527344 26.378906 L 71.527344 6.558594 Z M 67.042969 6.558594 "/>
<path style=" stroke:none;fill-rule:nonzero;fill:rgb(74.901961%,0%,0%);fill-opacity:1;" d="M 46.800781 15.886719 L 54.460938 6.558594 L 48.246094 6.558594 L 42.824219 13.480469 L 42.824219 0 L 38.265625 0 L 38.265625 26.453125 L 42.824219 26.453125 L 42.824219 18.292969 L 49.472656 26.453125 L 55.691406 26.453125 Z M 46.800781 15.886719 "/>
<path style=" stroke:none;fill-rule:nonzero;fill:rgb(74.901961%,0%,0%);fill-opacity:1;" d="M 31.253906 6.558594 L 31.253906 7.433594 C 29.878906 6.558594 28.722656 6.046875 27.0625 6.046875 C 22 6.046875 18.09375 10.710938 18.09375 16.46875 C 18.09375 22.226562 21.925781 26.890625 27.0625 26.890625 C 28.722656 26.890625 29.953125 26.378906 31.253906 25.507812 L 31.253906 26.378906 L 35.738281 26.378906 L 35.738281 6.558594 Z M 26.988281 22.152344 C 24.457031 22.152344 22.648438 19.675781 22.648438 16.542969 C 22.648438 13.410156 24.457031 10.929688 26.988281 10.929688 C 29.519531 10.929688 31.253906 13.410156 31.253906 16.542969 C 31.328125 19.675781 29.519531 22.152344 26.988281 22.152344 Z M 26.988281 22.152344 "/>
<path style=" stroke:none;fill-rule:nonzero;fill:rgb(74.901961%,0%,0%);fill-opacity:1;" d="M 5.226562 26.453125 L 5.226562 18.730469 L 8.480469 18.730469 L 14.191406 26.378906 L 20.046875 26.378906 L 13.105469 17.125 C 15.277344 15.59375 16.648438 13.042969 16.648438 10.128906 C 16.648438 5.394531 12.816406 1.601562 8.191406 1.601562 L 0.527344 1.601562 L 0.527344 26.378906 L 5.226562 26.378906 Z M 5.226562 6.339844 L 8.261719 6.339844 C 10.359375 6.339844 12.09375 8.089844 12.09375 10.203125 C 12.09375 12.316406 10.359375 14.066406 8.261719 14.066406 L 5.226562 14.066406 Z M 5.226562 6.339844 "/>
</g>
</svg>
