<?xml version="1.0" encoding="UTF-8"?>
<svg xmlns="http://www.w3.org/2000/svg" xmlns:xlink="http://www.w3.org/1999/xlink" width="46px" height="38px" viewBox="0 0 46 38" version="1.1">
<g id="surface1">
<path style=" stroke:none;fill-rule:evenodd;fill:rgb(25.490196%,67.058824%,88.235294%);fill-opacity:1;" d="M 45.660156 4.503906 C 43.976562 5.265625 42.171875 5.78125 40.277344 6.011719 C 42.214844 4.824219 43.699219 2.9375 44.394531 0.699219 C 42.578125 1.800781 40.578125 2.597656 38.445312 3.03125 C 36.734375 1.167969 34.300781 0 31.605469 0 C 26.429688 0 22.238281 4.300781 22.238281 9.601562 C 22.238281 10.355469 22.316406 11.089844 22.480469 11.789062 C 14.691406 11.390625 7.789062 7.5625 3.171875 1.753906 C 2.363281 3.171875 1.902344 4.816406 1.902344 6.578125 C 1.902344 9.90625 3.558594 12.851562 6.070312 14.566406 C 4.539062 14.519531 3.09375 14.085938 1.828125 13.367188 C 1.828125 13.40625 1.828125 13.445312 1.828125 13.484375 C 1.828125 18.136719 5.058594 22.019531 9.34375 22.898438 C 8.558594 23.117188 7.730469 23.234375 6.878906 23.234375 C 6.269531 23.234375 5.683594 23.167969 5.109375 23.058594 C 6.300781 26.875 9.765625 29.648438 13.859375 29.726562 C 10.652344 32.304688 6.617188 33.839844 2.222656 33.839844 C 1.464844 33.839844 0.722656 33.792969 -0.0117188 33.707031 C 4.128906 36.429688 9.058594 38.023438 14.351562 38.023438 C 31.585938 38.023438 41.007812 23.394531 41.007812 10.703125 C 41.007812 10.285156 41 9.875 40.980469 9.460938 C 42.8125 8.105469 44.398438 6.417969 45.65625 4.492188 Z M 45.660156 4.503906 "/>
</g>
</svg>
