<?xml version="1.0" encoding="UTF-8"?>
<svg xmlns="http://www.w3.org/2000/svg" xmlns:xlink="http://www.w3.org/1999/xlink" width="68px" height="46px" viewBox="0 0 69 46" version="1.1">
<g id="surface1">
<path style=" stroke:none;fill-rule:nonzero;fill:rgb(100%,0%,0%);fill-opacity:1;" d="M 55.019531 12.457031 C 54.523438 10.570312 53.058594 9.085938 51.195312 8.585938 C 47.820312 7.664062 34.292969 7.664062 34.292969 7.664062 C 34.292969 7.664062 20.761719 7.664062 17.390625 8.585938 C 15.527344 9.085938 14.0625 10.570312 13.5625 12.457031 C 12.660156 15.875 12.660156 23 12.660156 23 C 12.660156 23 12.660156 30.125 13.5625 33.542969 C 14.0625 35.429688 15.527344 36.914062 17.390625 37.421875 C 20.761719 38.335938 34.292969 38.335938 34.292969 38.335938 C 34.292969 38.335938 47.820312 38.335938 51.195312 37.421875 C 53.058594 36.914062 54.523438 35.429688 55.019531 33.542969 C 55.921875 30.125 55.921875 23 55.921875 23 C 55.921875 23 55.921875 15.875 55.019531 12.457031 "/>
<path style=" stroke:none;fill-rule:nonzero;fill:rgb(100%,100%,100%);fill-opacity:1;" d="M 29.867188 29.472656 L 41.175781 23 L 29.867188 16.527344 Z M 29.867188 29.472656 "/>
</g>
</svg>
